<?xml version="1.0" standalone="no"?>
<!DOCTYPE svg PUBLIC "-//W3C//DTD SVG 20010904//EN"
 "http://www.w3.org/TR/2001/REC-SVG-20010904/DTD/svg10.dtd">
<svg version="1.0" xmlns="http://www.w3.org/2000/svg"
 width="771.000000pt" height="731.000000pt" viewBox="0 0 771.000000 731.000000"
 preserveAspectRatio="xMidYMid meet">

<g transform="translate(0.000000,731.000000) scale(0.100000,-0.100000)"
fill="#000000" stroke="none">
<path d="M810 6150 c-41 -4 -93 -12 -116 -18 -81 -23 -173 -101 -213 -180 -46
-92 -46 -94 -46 -1057 0 -965 0 -965 47 -1058 45 -91 138 -161 248 -188 81
-21 2059 -21 2140 0 110 27 203 97 248 188 47 93 47 93 47 1058 0 964 0 965
-47 1058 -26 53 -83 113 -135 143 -101 60 -60 57 -1123 60 -536 1 -1009 -2
-1050 -6z m2063 -45 c128 -33 220 -130 247 -259 7 -35 10 -354 8 -981 -3 -904
-4 -931 -23 -979 -40 -97 -129 -174 -232 -201 -86 -22 -2060 -22 -2146 0 -72
19 -122 50 -175 110 -82 93 -77 23 -80 1070 -2 627 1 946 8 981 26 126 119
225 243 259 80 21 2067 22 2150 0z"/>
<path d="M1290 4029 l0 -171 104 4 c116 3 144 15 180 78 28 47 26 146 -3 193
-32 52 -73 67 -185 67 l-96 0 0 -171z m196 88 c22 -19 28 -34 32 -78 4 -48 1
-59 -20 -83 -19 -23 -35 -30 -76 -34 l-52 -5 0 112 0 111 44 0 c33 0 52 -6 72
-23z"/>
<path d="M1940 4146 c0 -28 -4 -35 -22 -38 -15 -2 -23 -10 -23 -23 0 -13 8
-21 23 -23 21 -3 22 -8 22 -92 0 -100 7 -110 74 -110 32 0 36 3 36 25 0 18 -5
25 -19 25 -25 0 -31 19 -31 91 0 56 1 59 25 59 20 0 25 5 25 25 0 20 -5 25
-25 25 -22 0 -25 4 -25 35 0 32 -2 35 -30 35 -28 0 -30 -3 -30 -34z"/>
<path d="M1685 4098 c-25 -13 -45 -38 -45 -55 0 -22 63 -16 78 7 16 25 58 26
71 1 14 -26 -2 -37 -63 -46 -51 -8 -96 -40 -96 -69 0 -62 61 -96 129 -73 22 8
41 11 41 6 0 -5 15 -9 34 -9 l34 0 -5 108 c-6 130 -15 142 -102 142 -31 0 -65
-6 -76 -12z m115 -136 c0 -10 -7 -28 -16 -40 -20 -29 -77 -28 -82 2 -5 24 9
36 50 46 48 12 48 12 48 -8z"/>
<path d="M2118 4090 c-14 -11 -28 -29 -31 -40 -4 -17 0 -20 27 -20 21 0 35 7
44 21 15 24 59 23 76 -3 14 -23 8 -27 -65 -44 -35 -8 -70 -22 -76 -31 -20 -26
-16 -77 7 -98 23 -21 102 -24 125 -5 9 7 15 8 20 0 3 -5 21 -10 38 -10 l32 0
-3 105 c-3 99 -5 106 -29 125 -36 28 -130 28 -165 0z m122 -134 c0 -47 -61
-76 -89 -42 -19 22 -2 45 42 55 23 5 43 9 45 10 1 1 2 -10 2 -23z"/>
<path d="M4880 6130 c-41 -5 -90 -13 -108 -19 -84 -26 -171 -99 -210 -178 -47
-93 -47 -94 -47 -1058 0 -965 0 -965 47 -1058 45 -91 138 -161 248 -188 81
-21 2059 -21 2140 0 110 27 203 97 248 188 47 93 47 93 47 1058 0 960 0 966
-45 1055 -28 53 -87 117 -136 146 -102 60 -59 58 -1129 60 -539 1 -1014 -2
-1055 -6z m2073 -45 c128 -33 220 -130 247 -259 7 -35 10 -354 8 -981 l-3
-930 -28 -60 c-36 -78 -95 -137 -171 -172 l-61 -28 -1060 0 c-1035 0 -1061 0
-1114 20 -76 28 -151 99 -187 177 l-29 63 -3 930 c-2 627 1 946 8 981 26 126
119 225 243 259 80 21 2067 22 2150 0z"/>
<path d="M4980 4170 c0 -29 1 -30 50 -30 l50 0 0 -140 0 -140 35 0 35 0 0 140
0 140 55 0 c54 0 55 0 55 30 l0 30 -140 0 -140 0 0 -30z"/>
<path d="M5710 4175 c0 -22 4 -25 35 -25 31 0 35 3 35 25 0 22 -4 25 -35 25
-31 0 -35 -3 -35 -25z"/>
<path d="M6120 4175 c0 -22 4 -25 35 -25 31 0 35 3 35 25 0 22 -4 25 -35 25
-31 0 -35 -3 -35 -25z"/>
<path d="M5248 4103 c-3 -5 -5 -61 -7 -125 l-2 -118 34 0 35 0 4 74 c4 84 23
116 68 116 24 0 26 3 22 30 -5 37 -35 40 -69 8 l-23 -21 0 21 c0 18 -6 22 -29
22 -17 0 -31 -3 -33 -7z"/>
<path d="M5475 4098 c-25 -13 -45 -38 -45 -55 0 -22 63 -16 78 7 16 25 58 26
71 1 14 -25 -1 -37 -59 -46 -56 -9 -76 -20 -90 -46 -15 -28 -3 -77 22 -90 26
-14 91 -14 117 1 14 7 21 7 21 0 0 -5 15 -10 34 -10 l34 0 -5 108 c-6 130 -15
142 -102 142 -31 0 -65 -6 -76 -12z m115 -136 c0 -10 -7 -28 -16 -40 -20 -29
-77 -28 -82 2 -5 24 9 36 50 46 48 12 48 12 48 -8z"/>
<path d="M5710 3985 l0 -125 35 0 35 0 0 125 0 125 -35 0 -35 0 0 -125z"/>
<path d="M5830 3985 l0 -125 35 0 35 0 0 84 c0 94 13 119 58 114 32 -4 40 -27
41 -125 l1 -73 30 0 30 0 0 105 c0 94 -2 106 -22 125 -27 25 -99 28 -119 4
-11 -14 -13 -14 -21 0 -5 9 -22 16 -38 16 l-30 0 0 -125z"/>
<path d="M6120 3986 l0 -126 35 0 36 0 -3 123 -3 122 -32 3 -33 3 0 -125z"/>
<path d="M6240 3985 l0 -125 35 0 35 0 0 81 c0 90 10 119 43 119 39 0 47 -18
47 -112 l0 -88 35 0 35 0 0 99 c0 84 -3 102 -21 125 -16 21 -29 26 -63 26 -23
0 -52 -7 -64 -16 -20 -14 -22 -14 -22 0 0 11 -10 16 -30 16 l-30 0 0 -125z"/>
<path d="M6564 4092 c-31 -25 -44 -55 -44 -102 0 -47 21 -95 49 -110 29 -15
83 -12 109 6 21 14 22 14 22 -10 0 -38 -35 -69 -68 -61 -15 4 -31 13 -35 21
-4 8 -21 14 -37 14 -23 0 -30 -5 -30 -18 0 -73 182 -83 220 -13 5 11 10 81 10
155 l0 136 -30 0 c-21 0 -30 -5 -30 -17 0 -15 -1 -15 -18 0 -24 22 -91 22
-118 -1z m117 -48 c21 -25 17 -93 -6 -110 -45 -33 -85 -5 -85 60 0 23 5 47 12
54 17 17 63 15 79 -4z"/>
<path d="M2810 2570 c-127 -14 -197 -46 -264 -121 -59 -64 -85 -131 -96 -245
-12 -129 -12 -1649 0 -1778 11 -115 38 -183 99 -248 47 -52 114 -90 191 -109
82 -21 2059 -21 2140 0 148 37 244 133 281 281 21 82 20 1849 0 1930 -36 142
-124 235 -263 278 -47 14 -167 16 -1033 18 -539 1 -1014 -2 -1055 -6z m2073
-45 c123 -32 210 -119 242 -242 22 -86 22 -1850 0 -1936 -33 -128 -130 -220
-259 -247 -35 -7 -386 -10 -1086 -8 l-1035 3 -60 28 c-101 47 -163 121 -190
224 -22 86 -22 1850 0 1936 31 121 119 210 238 242 80 21 2067 22 2150 0z"/>
<path d="M2640 550 l0 -170 130 0 130 0 0 30 0 30 -90 0 -90 0 0 45 0 45 80 0
80 0 0 30 0 30 -80 0 -80 0 0 35 0 35 90 0 90 0 0 30 0 30 -130 0 -130 0 0
-170z"/>
<path d="M3470 550 l0 -170 35 0 35 0 0 170 0 170 -35 0 -35 0 0 -170z"/>
<path d="M4330 695 c0 -22 4 -25 35 -25 31 0 35 3 35 25 0 22 -4 25 -35 25
-31 0 -35 -3 -35 -25z"/>
<path d="M4170 665 c0 -28 -4 -35 -20 -35 -27 0 -27 -40 -1 -47 16 -4 19 -16
23 -90 4 -97 15 -113 80 -113 34 0 38 3 38 24 0 18 -6 25 -22 28 -21 3 -23 9
-26 76 -3 71 -3 72 23 72 20 0 25 5 25 25 0 20 -5 25 -25 25 -22 0 -25 4 -25
35 0 33 -2 35 -35 35 -33 0 -35 -2 -35 -35z"/>
<path d="M2930 618 c0 -7 18 -62 39 -123 l39 -110 38 -3 39 -3 42 126 41 125
-34 0 c-33 0 -34 -1 -55 -72 -12 -40 -25 -77 -29 -81 -4 -5 -18 28 -30 72 -24
80 -24 81 -57 81 -20 0 -33 -5 -33 -12z"/>
<path d="M3226 609 c-14 -11 -26 -29 -26 -40 0 -27 55 -27 70 1 17 32 80 24
80 -11 0 -18 -20 -26 -108 -44 -36 -7 -52 -30 -52 -73 0 -42 31 -65 85 -64 25
0 53 6 62 14 13 10 17 10 20 1 3 -7 19 -13 36 -13 l32 0 -3 105 c-3 99 -5 106
-29 125 -36 28 -130 28 -167 -1z m124 -133 c0 -50 -68 -78 -89 -37 -13 23 4
40 52 51 17 4 33 8 35 9 1 1 2 -10 2 -23z"/>
<path d="M3600 529 c0 -55 4 -109 10 -119 15 -27 70 -43 106 -30 16 6 32 17
36 23 5 8 8 6 8 -5 0 -14 8 -18 35 -18 l35 0 0 125 0 125 -35 0 -35 0 0 -83
c0 -97 -11 -120 -55 -115 -36 4 -43 24 -44 126 l-1 72 -30 0 -30 0 0 -101z"/>
<path d="M3923 620 c-21 -9 -43 -38 -43 -59 0 -6 16 -11 35 -11 24 0 35 5 35
15 0 17 42 30 66 21 9 -3 14 -15 12 -28 -2 -18 -13 -24 -63 -34 -88 -18 -123
-76 -75 -124 26 -26 93 -30 133 -9 11 6 17 6 17 -1 0 -5 15 -10 33 -10 l33 0
-4 108 c-4 130 -13 142 -101 141 -31 0 -66 -4 -78 -9z m110 -154 c-7 -34 -26
-48 -60 -44 -29 3 -43 32 -25 50 11 11 73 27 83 22 4 -2 4 -15 2 -28z"/>
<path d="M4330 506 l0 -126 30 0 c38 0 42 15 38 145 l-3 100 -32 3 -33 3 0
-125z"/>
<path d="M4498 612 c-94 -58 -66 -208 44 -235 66 -17 141 32 154 99 9 48 -18
115 -55 137 -37 22 -108 21 -143 -1z m116 -54 c36 -51 9 -128 -44 -128 -35 0
-60 31 -60 75 0 68 69 103 104 53z"/>
<path d="M4740 505 l0 -125 35 0 35 0 0 84 c0 93 11 116 56 116 33 0 44 -32
44 -126 l0 -74 30 0 c17 0 30 5 31 13 1 15 1 133 0 170 -1 41 -33 67 -83 67
-24 0 -49 -7 -60 -17 -17 -15 -18 -15 -18 0 0 13 -9 17 -35 17 l-35 0 0 -125z"/>
</g>
</svg>
