<?xml version="1.0" standalone="no"?>
<!DOCTYPE svg PUBLIC "-//W3C//DTD SVG 20010904//EN"
 "http://www.w3.org/TR/2001/REC-SVG-20010904/DTD/svg10.dtd">
<svg version="1.0" xmlns="http://www.w3.org/2000/svg"
 width="844.000000pt" height="422.000000pt" viewBox="0 0 844.000000 422.000000"
 preserveAspectRatio="xMidYMid meet">

<g transform="translate(0.000000,422.000000) scale(0.100000,-0.100000)"
fill="#000000" stroke="none">
<path d="M4031 2769 l-43 -11 6 -41 c9 -53 35 -98 67 -114 33 -17 152 -16 193
1 33 14 55 52 70 122 6 27 4 32 -16 38 -41 12 -232 16 -277 5z"/>
<path d="M3603 2228 c-6 -7 -13 -28 -16 -46 l-7 -33 83 -39 c282 -132 712
-134 990 -3 72 34 77 38 77 68 0 17 -6 40 -14 50 -13 18 -17 18 -135 -19 -166
-52 -252 -65 -417 -66 -166 0 -272 16 -423 65 -121 39 -125 40 -138 23z"/>
<path d="M3592 2068 c11 -83 25 -133 54 -194 l24 -52 93 -30 c50 -16 126 -36
167 -43 97 -17 364 -17 460 0 119 21 232 59 257 87 26 29 68 156 78 236 l7 58
-44 -25 c-201 -112 -577 -145 -858 -74 -67 17 -180 62 -241 96 -3 2 -2 -24 3
-59z m244 -128 c38 -10 92 -21 120 -25 88 -11 94 -14 94 -40 0 -13 -3 -26 -7
-28 -12 -8 -192 21 -246 39 -46 15 -67 37 -67 69 0 12 5 15 18 10 9 -4 49 -15
88 -25z m754 14 c0 -50 -52 -75 -205 -98 -76 -11 -92 -11 -105 1 -30 28 0 46
99 60 51 8 116 22 144 32 67 24 67 24 67 5z"/>
<path d="M3718 1762 c42 -53 125 -108 208 -139 56 -21 93 -26 195 -31 141 -5
234 10 325 52 60 28 195 152 154 141 -14 -3 -68 -18 -120 -32 -89 -25 -109
-27 -315 -27 -199 -1 -229 2 -314 23 -52 13 -110 30 -129 38 l-35 14 31 -39z"/>
<path d="M3866 1385 l6 -35 -43 -1 c-24 -1 -48 -1 -53 0 -18 4 5 -66 51 -159
56 -110 91 -140 193 -166 88 -22 243 -15 321 15 73 28 110 68 157 171 62 133
62 127 -3 135 -58 8 -65 17 -45 56 14 25 -4 25 -62 2 -62 -26 -401 -25 -467 0
-59 23 -63 22 -55 -18z"/>
<path d="M3215 1180 c-103 -40 -160 -308 -96 -457 25 -57 52 -86 95 -103 28
-10 28 -10 23 22 -31 170 -33 366 -7 486 7 29 10 55 8 57 -1 1 -12 -1 -23 -5z"/>
<path d="M5084 1153 c4 -21 9 -113 12 -205 6 -153 0 -234 -23 -317 -5 -21 -3
-23 18 -16 33 10 77 53 99 95 69 136 21 413 -82 466 l-30 16 6 -39z"/>
<path d="M1977 763 c-28 -27 17 -103 61 -103 28 0 28 -20 1 -54 -15 -19 -30
-26 -54 -26 -29 0 -34 4 -40 30 -8 35 -41 80 -60 80 -8 0 -22 -11 -31 -25 -24
-36 -13 -136 20 -186 48 -72 173 -106 279 -75 60 17 107 60 87 80 -17 17 -11
69 11 105 42 69 -3 118 -141 156 -99 26 -122 29 -133 18z"/>
<path d="M6202 745 c-131 -37 -169 -74 -143 -138 26 -65 35 -111 23 -115 -19
-6 -14 -27 11 -49 35 -32 62 -43 125 -49 103 -11 207 38 238 113 19 43 18 144
0 169 -14 18 -17 18 -43 4 -18 -10 -31 -29 -39 -55 -10 -36 -14 -40 -46 -43
-31 -3 -38 1 -57 31 -26 43 -26 47 2 47 49 0 93 63 66 96 -15 19 -39 17 -137
-11z"/>
<path d="M2350 677 c-54 -26 -107 -205 -78 -263 15 -31 124 -90 285 -154 146
-58 248 -80 393 -87 118 -5 126 -4 153 17 15 12 34 35 42 51 l16 29 -36 0
c-48 0 -55 22 -55 174 l0 124 -57 20 c-135 49 -275 77 -467 92 -161 12 -165
12 -196 -3z"/>
<path d="M5752 679 c-130 -11 -324 -50 -427 -86 l-80 -28 -3 -134 c-2 -84 -7
-140 -14 -149 -7 -8 -25 -12 -44 -10 l-32 4 15 -30 c35 -68 53 -76 160 -76
174 1 354 48 570 150 139 65 153 79 153 144 0 78 -29 163 -68 197 -37 32 -45
33 -230 18z"/>
</g>
</svg>
