<svg id="Capa_1" enable-background="new 0 0 512 512" height="512" viewBox="0 0 512 512" width="512" xmlns="http://www.w3.org/2000/svg"><g><g><path d="m367.26 123.09v345h-306.52v-403.3c0-11.53 9.35-20.88 20.88-20.88h206.47c4.37 0 8.64.95 12.54 2.73 3.27 1.48 6.27 3.54 8.86 6.14l48.91 48.9c2.58 2.6 4.64 5.6 6.13 8.87 1.79 3.9 2.73 8.17 2.73 12.54z" fill="#eaf6ff"/><path d="m367.26 123.09v345h-23.09v-345c0-4.37-.94-8.64-2.73-12.54-1.48-3.27-3.55-6.27-6.13-8.87l-48.91-48.9c-2.58-2.6-5.59-4.66-8.86-6.14-3.9-1.78-8.17-2.73-12.54-2.73h23.09c4.37 0 8.64.95 12.54 2.73 3.27 1.48 6.27 3.54 8.86 6.14l48.91 48.9c2.58 2.6 4.64 5.6 6.13 8.87 1.79 3.9 2.73 8.17 2.73 12.54z" fill="#c8effe"/><path d="m367.26 220.6v222.53l-5.85 10.82c-4.98 9.22-14.31 14.14-23.75 14.14-6.8 0-13.67-2.55-19.01-7.9l-121.66-121.66c-12.76-12.75-9.63-34.19 6.24-42.76l112.9-61.04c5.71-4.5 15.92-11.02 23.1-15.36 8.8-5.47 19.93-4.85 28.03 1.23z" fill="#c8effe"/><path d="m364.53 110.55h-44c-10.99 0-19.91-8.92-19.91-19.91v-44c3.28 1.48 6.28 3.54 8.87 6.14l48.9 48.9c2.589 2.6 4.649 5.59 6.14 8.87z" fill="#99e6fc"/><path d="m364.53 110.55h-23.09c-1.48-3.27-3.55-6.27-6.13-8.87l-34.69-34.68v-20.36c3.28 1.48 6.28 3.54 8.87 6.14l48.9 48.9c2.589 2.6 4.649 5.59 6.14 8.87z" fill="#62dbfb"/><path d="m447.364 341.046-106.323-106.323c5.71-4.492 15.919-11.014 23.093-15.36 9.815-6.096 22.536-4.625 30.706 3.545l64.339 64.339c8.17 8.17 9.64 20.891 3.545 30.706-4.621 7.528-9.36 15.215-15.36 23.093z" fill="#6ed5a1"/><path d="m462.719 317.95c-4.62 7.53-9.36 15.22-15.36 23.1l-14.74-14.74c1.78-2.81 3.49-5.59 5.19-8.36 6.1-9.81 4.63-22.53-3.54-30.7l-64.34-64.34c-1.56-1.56-3.3-2.88-5.14-3.95 9.72-5.62 22.06-4.04 30.05 3.95l64.34 64.34c8.17 8.17 9.641 20.89 3.54 30.7z" fill="#46cc8d"/><path d="m504.5 151.891v51.391l-64.641 64.649-25.7-25.7z" fill="#6ed5a1"/><path d="m504.5 178.37v24.91l-64.641 64.65-12.459-12.46z" fill="#46cc8d"/><path d="m447.364 341.046-106.323-106.323-112.904 61.041c-15.865 8.577-18.993 30.014-6.24 42.767l121.659 121.659c12.753 12.753 34.19 9.625 42.767-6.24z" fill="#ffc344"/><path d="m447.359 341.05-61.04 112.9c-7.38 13.67-24.31 17.88-37.01 10.63 4.22-2.38 7.86-5.95 10.39-10.63l72.92-127.64z" fill="#feb137"/><path d="m260.09 348.58c-.02 0-.04 0-.06.01v-.03c.019 0 .04.01.06.02z" fill="#7ca1b1"/><path d="m367.26 408.897h-36.34c.239-2.102.375-4.235.375-6.401 0-30.939-25.081-56.021-56.021-56.021-5.288 0-10.398.749-15.248 2.118-2.759-20.058-19.957-35.51-40.773-35.51-3.958 0-7.78.57-11.402 1.612-14.69-20.648-38.796-34.131-66.067-34.131-44.762 0-81.048 36.286-81.048 81.048-29.402 0-53.238 23.835-53.238 53.238 0 29.402 23.835 53.238 53.238 53.238h34.049 152.655 119.82c16.345 0 29.595-13.25 29.595-29.595 0-16.346-13.25-29.596-29.595-29.596z" fill="#8ebac5"/><g fill="#7ca1b1"><path d="m259.96 348.14c-4.34-1.09-8.89-1.66-13.57-1.66-5.29 0-10.4.74-15.25 2.11-2.76-20.05-19.95-35.51-40.77-35.51-3.96 0-7.78.57-11.4 1.62-12.04-16.92-30.39-29.03-51.63-32.85 4.69-.85 9.52-1.29 14.45-1.29 27.27 0 51.37 13.49 66.06 34.14 3.62-1.05 7.45-1.62 11.4-1.62 20.66 0 37.76 15.23 40.71 35.06z"/><path d="m331.299 402.5c0 2.16-.14 4.3-.38 6.4h-28.88c.24-2.1.37-4.24.37-6.4 0-25.94-17.62-47.75-41.55-54.13 4.6-1.23 9.43-1.89 14.42-1.89 30.931 0 56.02 25.08 56.02 56.02z"/><path d="m396.859 438.49c0 16.35-13.25 29.6-29.6 29.6h-28.88c16.34 0 29.59-13.25 29.59-29.6 0-8.17-3.31-15.57-8.67-20.92-5.35-5.36-12.75-8.67-20.92-8.67h28.88c8.18 0 15.58 3.31 20.93 8.67 5.36 5.35 8.67 12.75 8.67 20.92z"/></g></g><g><path d="m499.196 197.979-59.335 59.343-15.093-15.093 85.034-85.034c2.929-2.93 2.929-7.678 0-10.607-2.929-2.928-7.678-2.928-10.606 0l-85.035 85.035-14.018-14.018c-6.908-6.908-16.215-10.138-25.382-9.423v-85.094c-.071-8.979-3.485-19.125-11.062-26.709l-48.895-48.895c-6.169-6.346-16.371-11.051-26.718-11.072h-206.467c-15.65 0-28.382 12.732-28.382 28.382v48.114c0 4.143 3.358 7.5 7.5 7.5s7.5-3.357 7.5-7.5v-48.114c0-7.379 6.003-13.382 13.382-13.382h211.503v39.228c0 15.114 12.296 27.41 27.41 27.41h39.229v95.194c-7.405 4.501-17.016 10.686-22.819 15.169l-112.372 60.754c-7.14 3.86-12.635 10.093-15.603 17.521-21.445 4.314-38.681 25.108-38.382 47.565 0 3.297.333 6.595.989 9.801.727 3.551 3.852 5.998 7.34 5.998.499 0 1.004-.051 1.511-.154 4.058-.83 6.675-4.793 5.844-8.852-.454-2.218-.684-4.504-.684-6.793 0-14.875 9.935-28.136 24.181-32.312 15.731-5.292 36.629 5.077 41.456 21.756-8.728 3.571-16.584 9.058-22.994 16.122-2.784 3.067-2.554 7.811.513 10.594 1.437 1.304 3.24 1.946 5.038 1.946 2.042 0 4.076-.829 5.556-2.46 8.777-9.651 21.811-15.859 35.94-15.923 26.754 0 48.521 21.767 48.521 48.521 0 1.778-.11 3.647-.327 5.554-.242 2.123.434 4.248 1.856 5.842 1.423 1.595 3.458 2.506 5.595 2.506h36.339c12.184 0 22.096 9.912 22.096 22.096 0 12.183-9.912 22.095-22.096 22.095h-306.522c-25.219-.002-45.737-20.52-45.737-45.74 0-22.797 16.766-41.748 38.615-45.18 1.616 17.597 8.481 34.45 19.747 48.151 1.483 1.804 3.631 2.736 5.797 2.736 1.676 0 3.363-.56 4.759-1.707 3.199-2.631 3.66-7.357 1.029-10.557-10.776-13.104-16.711-29.683-16.711-46.682 0-40.555 32.994-73.549 73.548-73.549 11.931 0 23.774 2.924 34.249 8.455 3.664 1.935 8.2.533 10.135-3.13 1.934-3.662.533-8.2-3.13-10.134-12.625-6.667-26.891-10.191-41.253-10.191-30.612 0-57.639 15.619-73.548 39.302v-162.571c0-4.143-3.358-7.5-7.5-7.5s-7.5 3.357-7.5 7.5v204.787c-29.964 3.707-53.237 29.319-53.237 60.27 0 33.49 27.247 60.737 60.737 60.737h306.522c20.516.059 38.363-17.818 37.039-39.115l49.409-91.389c6.145-8.131 11.064-16.131 15.388-23.174 7.976-12.841 6.079-29.275-4.612-39.967l-14.015-14.015 59.335-59.344c2.929-2.929 2.928-7.678-.001-10.606-2.928-2.926-7.677-2.927-10.606.002zm-178.664-94.928c-6.843 0-12.41-5.567-12.41-12.41v-28.624l41.034 41.033h-28.624zm77.109 314.195c-6.715-9.573-17.826-15.849-30.381-15.849h-2.475l36.974-56.227c2.276-3.461 1.315-8.111-2.146-10.388-3.46-2.274-8.111-1.315-10.387 2.146l-42.394 64.469h-8.045c-.226-13.199-4.508-25.424-11.636-35.498l45.929-45.929c2.929-2.93 2.929-7.678 0-10.607-2.929-2.928-7.678-2.928-10.606 0l-45.377 45.377c-11.034-9.675-25.432-15.594-41.19-15.749l15.588-10.251c3.46-2.276 4.421-6.927 2.146-10.388s-6.926-4.42-10.388-2.146l-21.602 14.206c-7.237-12.789-20.075-21.914-34.916-24.24 1.413-1.501 3.079-2.788 4.97-3.81l107.987-58.383 98.418 98.417zm56.235-124.695c5.737 5.737 6.756 14.556 2.456 21.479-3.099 5.048-6.272 10.216-9.89 15.487l-93.865-93.865c5.014-3.408 10.904-7.123 15.515-9.917 6.891-4.277 15.71-3.261 21.446 2.478z"/><path d="m314.002 295.986c-3.461 2.275-4.422 6.927-2.146 10.388 1.441 2.19 3.833 3.38 6.273 3.38 1.414 0 2.844-.399 4.114-1.234l23.27-15.302c3.461-2.275 4.422-6.927 2.146-10.388-2.276-3.46-6.927-4.421-10.387-2.146z"/><path d="m112.806 122.661h80.508c4.142 0 7.5-3.357 7.5-7.5s-3.358-7.5-7.5-7.5h-80.508c-4.142 0-7.5 3.357-7.5 7.5s3.358 7.5 7.5 7.5z"/><path d="m112.806 180.246h174.567c4.142 0 7.5-3.357 7.5-7.5s-3.358-7.5-7.5-7.5h-174.567c-4.142 0-7.5 3.357-7.5 7.5s3.358 7.5 7.5 7.5z"/><path d="m112.806 217.412h174.567c4.142 0 7.5-3.357 7.5-7.5s-3.358-7.5-7.5-7.5h-174.567c-4.142 0-7.5 3.357-7.5 7.5s3.358 7.5 7.5 7.5z"/><path d="m112.806 254.577h120.975c4.142 0 7.5-3.357 7.5-7.5s-3.358-7.5-7.5-7.5h-120.975c-4.142 0-7.5 3.357-7.5 7.5s3.358 7.5 7.5 7.5z"/></g></g></svg>